<?xml version="1.0" standalone="no"?>
<!DOCTYPE svg PUBLIC "-//W3C//DTD SVG 20010904//EN"
 "http://www.w3.org/TR/2001/REC-SVG-20010904/DTD/svg10.dtd">
<svg version="1.0" xmlns="http://www.w3.org/2000/svg"
 width="501.000000pt" height="501.000000pt" viewBox="0 0 501.000000 501.000000"
 preserveAspectRatio="xMidYMid meet">

<g transform="translate(0.000000,501.000000) scale(0.100000,-0.100000)"
fill="#000000" stroke="none">
<path d="M2270 5000 c-1065 -111 -1930 -852 -2190 -1875 -60 -238 -74 -355
-74 -620 0 -265 14 -382 74 -620 225 -887 918 -1580 1805 -1805 238 -60 355
-74 620 -74 265 0 382 14 620 74 887 225 1580 918 1805 1805 60 238 74 355 74
620 0 265 -14 382 -74 620 -249 980 -1060 1709 -2070 1860 -124 19 -469 27
-590 15z m-467 -1201 c228 -34 451 -141 591 -282 31 -32 11 -29 -49 8 -32 19
-68 37 -79 41 -21 6 -49 19 -196 87 -41 19 -95 41 -120 48 -52 15 -45 13 -90
22 -19 4 -46 9 -60 12 -58 13 -316 6 -385 -10 -180 -41 -347 -112 -473 -202
-93 -65 -223 -193 -293 -288 -32 -44 -62 -84 -67 -90 -4 -5 -32 -59 -61 -120
-30 -60 -60 -122 -67 -137 -8 -14 -14 -35 -14 -46 0 -12 -5 -24 -10 -27 -6 -3
-10 -21 -10 -38 0 -38 -12 -59 -30 -55 -10 2 -16 -13 -21 -45 -8 -54 -19 -74
-19 -36 1 57 31 200 59 280 71 199 170 359 316 504 119 120 133 132 227 188
172 104 336 165 499 186 95 12 270 12 352 0z m1897 -4 c111 -18 240 -57 318
-95 34 -16 64 -30 67 -30 6 0 139 -81 145 -89 3 -3 30 -25 60 -48 108 -82 280
-283 280 -327 0 -9 4 -16 10 -16 5 0 12 -11 16 -25 3 -14 10 -25 15 -25 14 0
10 -33 -6 -54 -17 -22 -20 -14 -5 13 6 13 5 24 -6 37 -14 18 -15 18 -9 -3 5
-18 3 -22 -9 -17 -9 3 -16 17 -16 30 0 13 -6 24 -13 24 -7 0 -22 15 -33 33
-28 49 -79 109 -164 194 -167 168 -389 282 -638 328 -99 19 -323 21 -417 4
-177 -32 -476 -154 -588 -240 -44 -34 -146 -136 -209 -208 -20 -23 -63 -95
-94 -159 -62 -127 -64 -130 -95 -215 -11 -31 -25 -55 -30 -51 -6 3 -7 -4 -4
-19 6 -21 2 -26 -23 -35 -27 -9 -29 -9 -24 11 3 12 12 33 21 47 9 14 23 42 30
64 29 86 117 255 167 323 177 239 376 393 630 489 181 68 432 92 624 59z m940
-733 c0 -15 -2 -15 -10 -2 -13 20 -13 33 0 25 6 -3 10 -14 10 -23z m-163 -388
c21 -29 16 -101 -8 -125 -17 -17 -30 -20 -65 -16 -62 7 -74 20 -74 83 0 43 4
56 23 69 29 21 105 14 124 -11z m-3458 -25 c147 -47 216 -132 215 -264 0 -104
-16 -147 -77 -208 -76 -75 -130 -91 -311 -92 l-141 0 0 55 0 55 96 -3 c214 -8
299 45 299 186 0 45 -5 67 -23 92 -40 61 -72 72 -230 79 l-142 6 -3 39 c-6 67
-7 66 144 66 76 0 154 -5 173 -11z m741 -44 l0 -55 -202 2 -202 3 -4 38 c-6
69 -14 67 208 67 l200 0 0 -55z m334 -147 c43 -109 81 -198 86 -198 4 0 43 89
86 198 l80 197 62 3 c66 3 75 -5 52 -46 -5 -9 -44 -96 -86 -192 -156 -360
-142 -334 -183 -338 -50 -5 -79 5 -87 31 -3 12 -15 40 -24 62 -84 189 -193
444 -197 463 -5 22 -4 23 63 20 l69 -3 79 -197z m1319 170 c58 -124 226 -531
222 -537 -2 -5 -30 -8 -62 -7 -62 1 -64 3 -98 89 l-14 38 -128 -3 c-142 -3
-127 5 -166 -88 l-14 -35 -62 3 c-33 2 -61 8 -61 13 0 6 18 48 40 95 22 47 40
87 40 90 0 4 67 155 121 272 16 35 29 67 29 71 0 20 29 31 81 31 54 0 57 -1
72 -32z m721 20 c57 -16 91 -42 111 -83 24 -52 12 -111 -32 -152 l-34 -32 40
-21 c51 -26 61 -45 61 -119 0 -53 -3 -63 -31 -91 -55 -54 -82 -60 -285 -60
l-184 0 -1 258 c0 141 -2 269 -4 285 l-4 27 161 0 c94 0 178 -5 202 -12z
m-2416 -276 l3 -53 -163 3 -163 3 -3 39 c-6 68 -10 67 165 64 l158 -3 3 -53z
m1167 -12 l0 -45 -125 0 -125 0 -3 33 c-6 62 -5 63 130 60 l123 -3 0 -45z
m-1117 -223 l-3 -52 -200 0 -199 0 -6 24 c-3 14 -4 38 -2 55 l4 31 204 -3 205
-3 -3 -52z m1012 -257 c0 -5 -5 -10 -11 -10 -5 0 -7 5 -4 10 3 6 8 10 11 10 2
0 4 -4 4 -10z m-46 -94 c-3 -9 -10 -16 -15 -16 -5 0 -4 9 3 20 14 22 21 20 12
-4z m-363 -377 c-18 -11 -35 -18 -38 -15 -5 5 46 35 62 36 6 0 -5 -9 -24 -21z
m-121 -68 c0 -5 -7 -11 -15 -15 -15 -5 -20 5 -8 17 9 10 23 9 23 -2z m1720
-21 c0 -5 -5 -10 -11 -10 -5 0 -7 5 -4 10 3 6 8 10 11 10 2 0 4 -4 4 -10z
m-1775 -10 c-3 -5 -11 -10 -16 -10 -6 0 -7 5 -4 10 3 6 11 10 16 10 6 0 7 -4
4 -10z"/>
<path d="M4355 2670 c-3 -6 -7 -29 -7 -52 0 -33 4 -46 22 -57 33 -22 52 -22
79 -2 26 20 32 80 11 106 -14 17 -95 21 -105 5z m76 -55 c7 -38 1 -63 -8 -37
-6 15 -33 16 -33 1 0 -27 -17 4 -18 33 -1 41 5 50 31 46 17 -2 23 -12 28 -43z"/>
<path d="M4390 2631 c0 -6 5 -13 10 -16 6 -3 10 1 10 9 0 9 -4 16 -10 16 -5 0
-10 -4 -10 -9z"/>
<path d="M3320 2492 c0 -10 -4 -22 -9 -27 -8 -9 -61 -140 -61 -150 0 -3 38 -5
84 -5 l85 0 -9 28 c-8 28 -18 54 -51 130 -20 43 -39 56 -39 24z"/>
<path d="M3905 2551 c-3 -5 -4 -35 -3 -65 l3 -56 82 0 c45 0 93 4 106 9 49 19
43 86 -10 110 -29 13 -169 15 -178 2z"/>
<path d="M3914 2316 c-3 -7 -4 -40 -2 -72 l3 -59 67 -3 c37 -2 86 2 108 8 80
22 93 102 20 127 -51 17 -189 17 -196 -1z"/>
</g>
</svg>
